<svg width="129" height="25" viewBox="0 0 129 25" fill="none" xmlns="http://www.w3.org/2000/svg">
<g clip-path="url(#clip0_1271_72)">
<g clip-path="url(#clip1_1271_72)">
<path d="M14.8031 15.8832C16.1719 15.8832 17.2631 15.3094 17.8669 14.5144L20.7094 16.1532C19.4231 18.0132 17.3719 19.0782 14.7469 19.0782C10.1531 19.0782 7.25436 15.9319 7.25436 11.8594C7.25436 7.78694 10.1794 4.64069 14.4731 4.64069C18.5194 4.64069 21.3919 7.83944 21.3919 11.8594C21.3919 12.3769 21.3356 12.8419 21.2569 13.3069H10.9481C11.4394 15.1107 12.9431 15.8757 14.8031 15.8757V15.8832ZM17.8669 10.5769C17.4281 8.60819 15.9544 7.81319 14.4769 7.81319C12.5906 7.81319 11.3044 8.82569 10.8956 10.5769H17.8669ZM0.901855 0.553192L1.89561 5.65319V18.7032H5.42436V0.553192H0.901855ZM33.4519 18.7032H36.9806V5.03069H33.4519V6.64319C32.4694 5.41319 30.9919 4.64819 28.9931 4.64819C25.3556 4.64819 22.3481 7.79069 22.3481 11.8669C22.3481 15.9432 25.3556 19.0857 28.9931 19.0857C29.8031 19.0857 30.5231 18.9582 31.1606 18.7257C31.8431 18.4782 32.2781 17.8069 32.2781 17.0832V14.7357C31.6069 15.3619 30.6956 15.7219 29.6456 15.7219C27.4856 15.7219 25.8731 14.1619 25.8731 11.8669C25.8731 9.57194 27.4856 8.01194 29.6456 8.01194C31.8056 8.01194 33.4481 9.57194 33.4481 11.8669V18.7032H33.4519ZM43.0219 11.8669C43.0219 9.56819 44.6344 8.01194 46.7944 8.01194C48.9544 8.01194 50.5969 9.57194 50.5969 11.8669C50.5969 14.1619 48.9844 15.7219 46.7944 15.7219C45.7631 15.7219 44.8594 15.3657 44.1956 14.7432V17.0982C44.1956 17.8257 44.6344 18.5007 45.3206 18.7444C45.9469 18.9657 46.6556 19.0857 47.4506 19.0857C51.1144 19.0857 54.1219 15.9394 54.1219 11.8669C54.1219 7.79444 51.1144 4.64819 47.4506 4.64819C45.4556 4.64819 44.0044 5.38694 43.0219 6.64319V5.03069H39.4931V21.9957H43.0219V11.8669Z" fill="#01AD4B"/>
<path d="M82.7831 4.75691V8.69441C80.9493 8.47691 78.6281 9.29441 78.6281 12.1669V18.7032H75.0993V5.03066H78.6281V7.38191C79.3406 5.52191 81.0618 4.75691 82.7831 4.75691ZM82.9218 11.8669C82.9218 7.79066 86.1206 4.64816 90.1406 4.64816C94.1606 4.64816 97.3856 7.79066 97.3856 11.8669C97.3856 15.9432 94.1606 19.0857 90.1406 19.0857C86.1206 19.0857 82.9218 15.9394 82.9218 11.8669ZM93.8606 11.8669C93.8606 9.65066 92.2481 8.09441 90.1406 8.09441C88.0331 8.09441 86.4506 9.65441 86.4506 11.8669C86.4506 14.0794 88.0631 15.6394 90.1406 15.6394C92.2181 15.6394 93.8606 14.0794 93.8606 11.8669ZM111.744 5.03066V18.7032H108.216V17.1732C107.394 18.4032 105.973 19.0857 104.143 19.0857C101.244 19.0857 98.9756 17.0607 98.9756 13.4269V5.03066H102.504V12.9882C102.504 14.8482 103.626 15.8044 105.212 15.8044C106.933 15.8044 108.219 14.7919 108.219 12.4144V5.03066H111.748H111.744ZM117.819 11.8669C117.819 9.56816 119.432 8.01191 121.592 8.01191C123.752 8.01191 125.394 9.57191 125.394 11.8669C125.394 14.1619 123.782 15.7219 121.592 15.7219C120.561 15.7219 119.657 15.3657 118.993 14.7432V17.0982C118.993 17.8257 119.432 18.5007 120.118 18.7444C120.744 18.9657 121.453 19.0857 122.248 19.0857C125.912 19.0857 128.919 15.9394 128.919 11.8669C128.919 7.79441 125.912 4.64816 122.248 4.64816C120.253 4.64816 118.802 5.38691 117.819 6.64316V5.03066H114.291V21.9957H117.819V11.8669ZM69.1406 18.2269H69.1331C69.0581 20.2707 67.7081 21.4107 65.5593 21.4107C63.4106 21.4107 62.5518 20.5632 61.9781 19.4982L58.9706 21.2194C60.1743 23.4357 62.5256 24.5569 65.4506 24.5569C69.0581 24.5569 72.5868 22.5319 72.5868 18.0507V5.03066H69.1406V6.72566C68.1843 5.43941 66.7068 4.64816 64.7643 4.64816C60.8831 4.64816 57.9543 7.82066 57.9543 11.6494C57.9543 15.4782 60.8793 18.6507 64.7643 18.6507C65.5481 18.6507 66.2568 18.5194 66.8831 18.2794C67.5506 18.0244 67.9781 17.3607 67.9781 16.6482V14.4169C67.3031 15.0357 66.3806 15.3994 65.3118 15.3994C63.0956 15.3994 61.4831 13.8394 61.4831 11.6532C61.4831 9.46691 63.0956 7.93316 65.3118 7.93316C67.5281 7.93316 69.1406 9.49316 69.1406 11.6532V18.2307V18.2269Z" fill="white"/>
</g>
</g>
<defs>
<clipPath id="clip0_1271_72">
<rect width="128.014" height="24" fill="white" transform="translate(0.901855 0.553192)"/>
</clipPath>
<clipPath id="clip1_1271_72">
<rect width="128.014" height="24" fill="white" transform="translate(0.901855 0.553192)"/>
</clipPath>
</defs>
</svg>
